<svg width="156" height="28" viewBox="0 0 156 28" fill="none" xmlns="http://www.w3.org/2000/svg">
<g clip-path="url(#clip0_1852_30977)">
<mask id="mask0_1852_30977" style="mask-type:luminance" maskUnits="userSpaceOnUse" x="0" y="0" width="156" height="28">
<path d="M156 0.538086H0V27.4619H156V0.538086Z" fill="white"/>
</mask>
<g mask="url(#mask0_1852_30977)">
<path d="M23.361 0.934082H3.564C1.82187 0.934082 0.396484 2.35946 0.396484 4.10159V23.8986C0.396484 25.6407 1.82187 27.0661 3.564 27.0661H23.361C25.1031 27.0661 26.5285 25.6407 26.5285 23.8986V4.10159C26.5285 2.35946 25.1031 0.934082 23.361 0.934082Z" fill="#006CFF"/>
<path d="M15.9187 14.1978C15.8241 14.0082 15.8188 13.8845 15.9187 13.6831L19.8781 6.91257C20.076 6.55623 19.8385 6.0415 19.3634 6.0415H10.5735C10.3755 6.0415 10.2076 6.13863 10.0984 6.31866L5.66387 13.6435C5.55803 13.8247 5.56191 14.0568 5.66387 14.2374L10.0984 21.5623C10.196 21.7428 10.3584 21.8395 10.5735 21.8395H19.3634C19.7989 21.8395 20.076 21.3643 19.8781 20.9684L15.9187 14.1978ZM17.8588 7.54607L14.9684 12.4953L12.0781 7.54607H17.8588ZM7.24762 13.9999L10.6527 8.29836L13.9786 13.9999L10.6527 19.7014L7.24762 13.9999ZM12.1177 20.4537L15.008 15.5044L17.8984 20.4537H12.1177Z" fill="white"/>
<path d="M39.7808 8.9435C41.5396 8.9435 42.6775 9.77402 43.26 11.4827L43.3047 11.6141L45.6 11.0005L45.5643 10.8586C44.8805 8.14426 42.773 6.58719 39.782 6.58679C38.0226 6.56323 36.376 7.22326 35.1652 8.43618C33.8198 9.78333 33.124 11.6714 33.1532 13.8923C33.124 16.1172 33.8198 18.0056 35.1652 19.3527C36.3581 20.5475 37.9666 21.2025 39.7009 21.2025C39.7278 21.2025 39.7543 21.2025 39.7808 21.2021C42.7726 21.2021 44.8805 19.6451 45.5643 16.9303L45.6 16.7884L43.3047 16.1748L43.26 16.3063C42.6775 18.0149 41.5396 18.8455 39.7808 18.8455C37.2698 18.8455 35.7098 16.9481 35.7098 13.8943C35.7098 10.8404 37.2698 8.9435 39.7808 8.9435Z" fill="#272932"/>
<path d="M52.3648 10.506C51.0745 10.506 49.9227 11.093 49.1938 12.0994V6.58643H46.7773V21.0417H49.1938V16.6137C49.1938 13.8854 50.4956 12.6427 51.7048 12.6427C52.7497 12.6427 53.2363 13.2118 53.2363 14.4341V21.0417H55.6531V13.774C55.6531 11.6973 54.4546 10.506 52.3648 10.506Z" fill="#272932"/>
<path d="M61.6161 10.5063C58.2716 10.5063 56.748 13.2787 56.748 15.8543C56.748 18.4298 58.2716 21.2021 61.6161 21.2021C63.8397 21.2021 65.3063 20.2533 66.2308 18.2156L66.2953 18.0729L64.2883 17.2883L64.2254 17.4024C63.576 18.5837 62.8487 19.0654 61.7159 19.0654C60.3392 19.0654 59.4377 18.156 59.2235 16.5626H66.384V15.5341C66.384 13.0355 64.7464 10.5063 61.6161 10.5063ZM61.6161 12.643C62.8051 12.643 63.6081 13.317 63.8932 14.5458H59.3466C59.6776 13.3503 60.515 12.643 61.6161 12.643Z" fill="#272932"/>
<path d="M74.9816 17.3703C74.4253 18.5427 73.6833 19.0654 72.5763 19.0654C71.0539 19.0654 70.1448 17.8649 70.1448 15.8543C70.1448 13.8436 71.0539 12.643 72.5763 12.643C73.6885 12.643 74.4523 13.1809 74.9808 14.3362L75.0406 14.4665L77.1878 13.5757L77.134 13.4395C76.3702 11.5206 74.794 10.5063 72.5763 10.5063C69.6289 10.5063 67.6484 12.6554 67.6484 15.8543C67.6484 19.0531 69.6289 21.2021 72.5763 21.2021C74.7888 21.2021 76.365 20.181 77.134 18.2488L77.1882 18.1115L75.0418 17.2439L74.9816 17.3703Z" fill="#272932"/>
<path d="M86.8719 10.6661H83.8738L80.5301 14.5164V6.58643H78.1133V21.0417H80.5301V16.4037L84.1692 21.0417H87.1534L82.6167 15.458L86.8719 10.6661Z" fill="#272932"/>
<path d="M91.9171 10.5063C88.8862 10.5063 86.7695 12.7057 86.7695 15.8543C86.7695 19.0028 88.8862 21.2021 91.9171 21.2021C94.948 21.2021 97.0647 19.0028 97.0647 15.8543C97.0647 12.7057 94.948 10.5063 91.9171 10.5063ZM93.8386 18.1441C93.369 18.7643 92.7407 19.0654 91.9171 19.0654C91.092 19.0654 90.4387 18.7553 89.9755 18.1441C89.4979 17.5142 89.2659 16.7652 89.2659 15.8543C89.2659 14.9437 89.4979 14.1943 89.9755 13.5641C90.4387 12.9527 91.092 12.643 91.9171 12.643C92.7403 12.643 93.369 12.9443 93.8386 13.5641C94.3161 14.1943 94.5481 14.9437 94.5481 15.8543C94.5481 16.7652 94.3161 17.5142 93.8386 18.1441Z" fill="#272932"/>
<path d="M104.638 14.9543C104.638 17.3748 103.63 19.0653 102.187 19.0653C101.197 19.0653 100.716 18.5054 100.716 17.3539V10.6663H98.2988V17.9339C98.2988 19.9496 99.5437 21.202 101.547 21.202C102.715 21.202 103.821 20.6204 104.638 19.5911V21.0419H107.035V10.6663H104.638V14.9543Z" fill="#272932"/>
<path d="M114.188 18.8263C113.924 18.9848 113.593 19.0652 113.205 19.0652C112.37 19.0652 112.013 18.6194 112.013 17.5739V12.8029H114.693V10.6662H112.013V6.46558L109.596 7.99287V10.6662H107.977V12.8029H109.596V17.5337C109.596 19.8993 110.842 21.2019 113.104 21.2019C113.751 21.2019 114.332 21.0755 114.831 20.8265L114.941 20.7712L114.354 18.7265L114.188 18.8263Z" fill="#272932"/>
<path d="M117.297 17.8853C116.366 17.8853 115.689 18.57 115.689 19.5135C115.689 20.4418 116.381 21.1421 117.297 21.1421C118.253 21.1421 118.946 20.4573 118.946 19.5135C118.946 18.57 118.253 17.8853 117.297 17.8853Z" fill="#272932"/>
<path d="M126.986 17.3703C126.429 18.5427 125.687 19.0654 124.58 19.0654C123.058 19.0654 122.149 17.8649 122.149 15.8543C122.149 13.8436 123.058 12.643 124.58 12.643C125.692 12.643 126.456 13.1809 126.985 14.3362L127.045 14.4665L129.192 13.5757L129.137 13.4395C128.374 11.5206 126.798 10.5063 124.58 10.5063C121.632 10.5063 119.652 12.6554 119.652 15.8543C119.652 19.0531 121.632 21.2021 124.58 21.2021C126.793 21.2021 128.369 20.181 129.137 18.2488L129.192 18.1115L127.046 17.2439L126.986 17.3703Z" fill="#272932"/>
<path d="M135.054 10.5063C132.023 10.5063 129.906 12.7057 129.906 15.8543C129.906 19.0028 132.023 21.2021 135.054 21.2021C138.085 21.2021 140.202 19.0028 140.202 15.8543C140.202 12.7057 138.085 10.5063 135.054 10.5063ZM136.976 18.1441C136.506 18.7643 135.877 19.0654 135.054 19.0654C134.229 19.0654 133.576 18.7553 133.113 18.1441C132.635 17.5142 132.403 16.7652 132.403 15.8543C132.403 14.9437 132.635 14.1943 133.113 13.5641C133.576 12.9527 134.229 12.643 135.054 12.643C135.877 12.643 136.506 12.9443 136.976 13.5641C137.453 14.1943 137.685 14.9437 137.685 15.8543C137.685 16.7652 137.453 17.5142 136.976 18.1441Z" fill="#272932"/>
<path d="M152.675 10.5063C151.481 10.5063 150.341 11.2147 149.575 12.4176C149.112 11.1819 148.115 10.5063 146.736 10.5063C145.603 10.5063 144.653 11.0338 143.905 12.0754V10.6664H141.488V21.042H143.905V16.974C143.905 14.3432 144.796 12.643 146.176 12.643C147.055 12.643 147.448 13.1094 147.448 14.1545V21.042H149.844V16.8139C149.844 14.3192 150.757 12.643 152.115 12.643C152.994 12.643 153.387 13.1094 153.387 14.1545V21.042H155.783V13.8146C155.783 11.7123 154.65 10.5063 152.675 10.5063Z" fill="#272932"/>
</g>
</g>
<defs>
<clipPath id="clip0_1852_30977">
<rect width="156" height="26.9239" fill="white" transform="translate(0 0.538086)"/>
</clipPath>
</defs>
</svg>
